####
#
# OBJ File Generated by Meshlab
#
####
# Object frustrum.obj
#
# Vertices: 8
# Faces: 12
#
####
mtllib ./frustrum.obj.mtl

vn -0.681514 -0.643979 -0.347605
v -0.202073 -0.150000 -0.250000
vn 0.681514 -0.643979 -0.347605
v 0.202073 -0.150000 -0.250000
vn -0.398136 -0.452330 0.798051
v -0.057735 -0.043330 0.000000
vn 0.398136 -0.452330 0.798051
v 0.057735 -0.043330 0.000000
vn -0.398136 0.452330 0.798051
v -0.057735 0.043330 0.000000
vn 0.398136 0.452330 0.798050
v 0.057735 0.043330 0.000000
vn -0.681514 0.643979 -0.347605
v -0.202073 0.150000 -0.250000
vn 0.681514 0.643979 -0.347605
v 0.202073 0.150000 -0.250000
# 8 vertices, 0 vertices normals


usemtl material_0
f 7//7 2//2 1//1
f 5//5 7//7 1//1
f 3//3 5//5 1//1
f 2//2 3//3 1//1
f 7//7 8//8 2//2
f 4//4 3//3 2//2
f 8//8 4//4 2//2
f 6//6 5//5 3//3
f 4//4 6//6 3//3
f 8//8 6//6 4//4
f 6//6 7//7 5//5
f 8//8 7//7 6//6
# 12 faces, 0 coords texture

# End of File
